<svg xmlns="http://www.w3.org/2000/svg"  viewBox="0 0 100 100" width="500px" height="500px"><path d="M52.064,99.011c-10.459,0-17.943-7.419-18.763-8.266 c-5.9-5.908-9.198-15.693-10.493-20.442c-2.256-0.605-3.734-0.06-5.36-1.921c-4.564-5.227-6.303-13.554-1.756-18.87 c0.661-0.772,1.48-1.441,2.403-1.984c-2.153-10.353-1.159-19.281,2.973-26.595c4.586-8.117,12.433-12.671,18.246-14.225 C40.795,6.312,46.11,5.02,52.35,5.02c10.572,0,13.078,4.258,15.729,8.048c6.724,2.496,14.35,6.125,17.179,11.791 c3.873,7.753,2.944,16.444,1.545,22.237C89.36,49.01,91,52.062,91,55.5v8c0,3.266-1.537,6.279-4,8.232V75.5 C87,81.29,82.29,86,76.5,86h-0.967c-1.251,1.707-2.634,3.32-4.13,4.818C70.58,91.647,62.955,99.011,52.064,99.011z" opacity=".35"/><path fill="#f2f2f2" d="M50.064,97.011c-10.459,0-17.943-7.419-18.763-8.266c-5.9-5.908-8.666-12.378-9.961-17.127 c-2.256-0.605-4.296-1.885-5.922-3.747c-4.564-5.227-6.272-15.044-1.726-20.36c0.661-0.772,1.48-1.441,2.403-1.984 c-2.153-10.353-1.159-19.281,2.973-26.595c4.586-8.117,12.433-12.671,18.246-14.225C38.795,4.312,44.11,3.02,50.35,3.02 c10.572,0,15.868,3.76,18.52,7.55c6.724,2.496,11.56,6.624,14.389,12.29c3.873,7.753,2.944,16.444,1.545,22.237 C87.36,47.01,89,50.062,89,53.5v8c0,3.266-1.537,6.279-4,8.232V73.5C85,79.29,80.29,84,74.5,84h-0.967 c-1.251,1.707-2.634,3.32-4.13,4.818C68.58,89.647,60.955,97.011,50.064,97.011z"/><path fill="#ffa368" d="M64.773,82.423c5.121-4.146,6.729-9.427,9.138-16.772c2.017,1.888,2.589,0.888,5.191-2.09 c2.83-3.239,3.582-7.934,1.681-10.486c-1.519-2.039-2.104-2.282-4.593-0.569c0.692-4.458,0.283-8.708,0.283-12.298 c0-16.628-11.279-26.675-26.085-26.675S24.304,23.582,24.304,40.21c0,3.655-0.289,7.994,0.578,12.54 c-0.578-2.16-4.731-1.77-6.318,0.36c-1.901,2.552-1.148,7.247,1.681,10.486c2.83,3.239,5.163,3.799,7.064,1.247 c0.008-0.01,0.346,0.061,0.354,0.051c1.739,7.963,3.044,13.018,7.643,17.322l10.177,7.89h9.61L64.773,82.423z"/><path fill="#40396e" d="M22.295,49.657c0,0,3.801-3.084,5.865-5.94c0,0,35.445-2.17,38.282-20.227 C69.497,4.054,45.419,7.716,38.607,9.538C32.637,11.134,13.404,20.079,22.295,49.657z"/><path fill="#40396e" d="M63.527,26.73c0,0-0.501,5.165,9.119,16.983l3.607,4.513l2.022,0.978 c0,0,11.646-27.202-13.105-34.612L63.527,26.73z"/><path fill="#40396e" d="M36.769,28.612c7.589,0,19.65-0.001,27.239-0.001c3.812,0,6.708,3.026,7.103,6.818 c1.468,14.094,2.803,14.877,2.803,14.877S78.572,47.046,76,49c0.866-4.546,1.159-5.136,1.159-8.79 c0-16.628-11.966-27.361-26.771-27.361S23.617,23.582,23.617,40.21c0,3.655,0.398,6.621,1.264,11.167 c-2.572-1.954,1.512,0.625,1.512,0.625s1.337-3.289,3.272-16.573C30.215,31.657,32.956,28.612,36.769,28.612z"/><path fill="none" stroke="#40396e" stroke-linecap="round" stroke-linejoin="round" stroke-miterlimit="10" stroke-width="3" d="M75.5,49.5c0.866-4.546,1.659-5.636,1.659-9.29c0-16.628-11.966-27.361-26.771-27.361"/><path fill="#707cc0" d="M73.992,50.194L80,50.205c2.209,0,2,3.306,2,5.17v6.75c0,1.864-1.712,2.819-3.921,2.819 l-5.112,0.101C72.966,65.045,73.944,58.573,73.992,50.194z"/><path fill="none" stroke="#40396e" stroke-linecap="round" stroke-linejoin="round" stroke-miterlimit="10" stroke-width="3" d="M50.388,12.849c-14.805,0-26.771,10.734-26.771,27.361c0,3.655,0.5,6.756,1.366,11.302c-2.572-1.954-5.526-0.737-6.35,0.226 c-2.069,2.418-1.148,8.619,1.681,11.859c2.83,3.239,6.421,1.409,6.421,1.409c0.008-0.01,0.314,10.284,9.237,19.22 c0,0,6.083,6.286,14.091,6.286c8.509,0,14.739-6.286,14.739-6.286c8.924-8.936,9.537-18.685,9.545-18.674"/><circle cx="59" cy="77" r="4" fill="#40396e"/><path fill="none" stroke="#40396e" stroke-miterlimit="10" stroke-width="3" d="M59.5,77.5h15c2.209,0,4-1.791,4-4V64"/><path fill="none" stroke="#40396e" stroke-linecap="round" stroke-linejoin="round" stroke-miterlimit="10" stroke-width="3" d="M75.191,49.5H78.5c2.209,0,4,1.791,4,4v8c0,2.209-1.791,4-4,4h-3.815"/></svg>